# xmcd
#
# Track frame offsets:
#	150
#	10686
#	94693
#
# Disc length: 1613 seconds
#
# Revision: 1
# Processed by: cddbd v1.5.2PL0 Copyright (c) Steve Scherf et al.
# Submitted via: audiograbber 1.83.01
#
DISCID=14064b03
DTITLE=Grateful Dead - 71-02-19 Capitol Theatre, Port Chester NY
DYEAR=1900
DGENRE=
TTITLE0=Tuning 3
TTITLE1=Good Lovin'
TTITLE2=Casey Jones
EXTD=
EXTT0=
EXTT1=
EXTT2=
PLAYORDER=
